<?xml version="1.0"?>
<svg xmlns="http://www.w3.org/2000/svg" viewBox="0 0 50 50" enable-background="new 0 0 50 50">
    <path d="M 25 0.0625 C 24.8125 0.0625 24.65 0.0875 24.5 0.1875 L 18.09375 4.1875 L 17.8125 4.40625 C 17.0125 4.90625 16 5.60625 16 6.90625 L 16 7.625 L 1.3125 3.03125 A 1.0001 1.0001 0 0 0 0.8125 3 A 1.0001 1.0001 0 0 0 0.6875 4.96875 L 16.6875 9.96875 A 1.0179061 1.0179061 0 0 0 17.09375 10 L 18 10 L 18 12 L 17.3125 12 A 1.0083877 1.0083877 0 0 0 16.875 12 A 1.0001 1.0001 0 0 0 16.6875 12.03125 C 16.656903 12.03986 16.622634 12.051391 16.59375 12.0625 L 0.6875 17.03125 A 1.0179061 1.0179061 0 1 0 1.3125 18.96875 L 16 14.375 L 16 15.3125 C 16 16.625 16.92168 17.687305 18.15625 17.9375 L 16.84375 23.6875 L 15.03125 31.46875 A 1.0063276 1.0063276 0 0 0 14.90625 32.09375 L 13.21875 39.3125 A 1.0001 1.0001 0 0 0 13 40.25 L 11.375 47.34375 A 1.0001 1.0001 0 0 0 11.25 47.875 L 11.03125 48.78125 A 1.0001 1.0001 0 0 0 12 50 L 38 50 A 1.0001 1.0001 0 0 0 38.96875 48.78125 L 37.59375 42.8125 A 1.0001 1.0001 0 0 0 37.46875 42.3125 L 36.1875 36.71875 A 1.0030471 1.0030471 0 0 0 35.96875 35.78125 L 33.21875 24 A 1.0001 1.0001 0 0 0 33.09375 23.40625 L 31.84375 17.9375 C 33.07832 17.687305 34 16.625 34 15.3125 L 34 14.375 L 48.6875 18.96875 A 1.0179061 1.0179061 0 1 0 49.3125 17.03125 L 33.40625 12.0625 C 33.377366 12.051391 33.343097 12.03986 33.3125 12.03125 A 1.0001 1.0001 0 0 0 32.90625 12 L 32 12 L 32 10 L 32.875 10 A 1.0179061 1.0179061 0 0 0 33.28125 9.96875 C 33.322242 9.9582454 33.368208 9.9526192 33.40625 9.9375 L 49.3125 4.96875 A 1.0083877 1.0083877 0 1 0 48.875 3 A 1.0001 1.0001 0 0 0 48.6875 3.03125 L 34 7.625 L 34 6.90625 C 34 5.50625 33.0875 4.90625 32.1875 4.40625 L 25.59375 0.1875 C 25.39375 0.0875 25.1875 0.0625 25 0.0625 z M 20 10 L 30 10 L 30 12 L 20 12 L 20 10 z M 20.1875 18 L 27.8125 18 L 19.21875 22.1875 L 20.1875 18 z M 31.5 25.34375 L 32.5 29.65625 L 15.53125 38.0625 L 16.78125 32.6875 L 31.5 25.34375 z M 34.4375 37.9375 L 35.40625 42.28125 L 23.75 48 L 14.125 48 L 34.4375 37.9375 z"/>
</svg>
