<?xml version="1.0" encoding="UTF-8" standalone="no"?>
<!-- Created with Inkscape (http://www.inkscape.org/) -->

<svg
   xmlns:dc="http://purl.org/dc/elements/1.1/"
   xmlns:cc="http://creativecommons.org/ns#"
   xmlns:rdf="http://www.w3.org/1999/02/22-rdf-syntax-ns#"
   xmlns:svg="http://www.w3.org/2000/svg"
   xmlns="http://www.w3.org/2000/svg"
   xmlns:xlink="http://www.w3.org/1999/xlink"
   xmlns:sodipodi="http://sodipodi.sourceforge.net/DTD/sodipodi-0.dtd"
   xmlns:inkscape="http://www.inkscape.org/namespaces/inkscape"
   width="600"
   height="100"
   viewBox="0 0 158.75 26.458334"
   version="1.1"
   id="svg8"
   inkscape:version="0.92.2 5c3e80d, 2017-08-06"
   sodipodi:docname="horizontal_icon.svg">
  <sodipodi:namedview
     id="base"
     pagecolor="#ffffff"
     bordercolor="#666666"
     borderopacity="1.0"
     inkscape:pageopacity="0.0"
     inkscape:pageshadow="2"
     inkscape:zoom="0.98994949"
     inkscape:cx="360.2724"
     inkscape:cy="65.135097"
     inkscape:document-units="mm"
     inkscape:current-layer="layer5"
     showgrid="false"
     units="px"
     inkscape:window-width="1284"
     inkscape:window-height="610"
     inkscape:window-x="0"
     inkscape:window-y="1"
     inkscape:window-maximized="0" />
  <defs
     id="defs2">
    <linearGradient
       id="linearGradient5540"
       inkscape:collect="always">
      <stop
         id="stop5536"
         offset="0"
         style="stop-color:#ededee;stop-opacity:1;;opacity:1" />
      <stop
         id="stop5538"
         offset="1"
         style="stop-color:#ededee;stop-opacity:0;;opacity:1" />
    </linearGradient>
    <linearGradient
       gradientTransform="matrix(1.0099305,0,0,0.72882212,46.768376,119.60157)"
       gradientUnits="userSpaceOnUse"
       y2="198.67841"
       x2="101.85938"
       y1="198.67841"
       x1="-16.036171"
       id="linearGradient5542"
       xlink:href="#linearGradient5540"
       inkscape:collect="always" />
    <linearGradient
       gradientTransform="matrix(1.0099305,0,0,0.72882212,46.768376,119.60157)"
       gradientUnits="userSpaceOnUse"
       y2="198.67841"
       x2="101.85938"
       y1="198.67841"
       x1="-16.036171"
       id="linearGradient5542-607"
       xlink:href="#linearGradient5540-801"
       inkscape:collect="always" />
    <linearGradient
       id="linearGradient5540-801"
       inkscape:collect="always">
      <stop
         id="stop5585"
         offset="0"
         style="stop-color:#ededee;stop-opacity:1;;opacity:1" />
      <stop
         id="stop5587"
         offset="1"
         style="stop-color:#ededee;stop-opacity:0;;opacity:1" />
    </linearGradient>
    <linearGradient
       gradientTransform="matrix(1.0099305,0,0,0.72882212,44.095681,129.2018)"
       gradientUnits="userSpaceOnUse"
       y2="198.67841"
       x2="101.85938"
       y1="198.67841"
       x1="-16.036171"
       id="linearGradient5542-607-232"
       xlink:href="#linearGradient5540-801-485"
       inkscape:collect="always" />
    <linearGradient
       id="linearGradient5540-801-485"
       inkscape:collect="always">
      <stop
         id="stop5625"
         offset="0"
         style="stop-color:#ededee;stop-opacity:1;;opacity:1" />
      <stop
         id="stop5627"
         offset="1"
         style="stop-color:#ededee;stop-opacity:0;;opacity:1" />
    </linearGradient>
  </defs>
  <metadata
     id="metadata5">
    <rdf:RDF>
      <cc:Work
         rdf:about="">
        <dc:format>image/svg+xml</dc:format>
        <dc:type
           rdf:resource="http://purl.org/dc/dcmitype/StillImage" />
        <dc:title></dc:title>
      </cc:Work>
    </rdf:RDF>
  </metadata>
  <g
     transform="translate(0,-270.54165)"
     style="opacity:1"
     id="layer1"
     inkscape:groupmode="layer"
     inkscape:label="Layer 1" />
  <g
     inkscape:groupmode="layer"
     id="layer5"
     inkscape:label="text"
     transform="translate(0,-26.458333)">
    <text
       id="text4147"
       y="52.616837"
       x="0.16741693"
       style="font-style:normal;font-variant:normal;font-weight:normal;font-stretch:normal;font-size:34.0113678px;line-height:1.25;font-family:'Bodoni 72 Smallcaps';-inkscape-font-specification:'Bodoni 72 Smallcaps, Normal';font-variant-ligatures:normal;font-variant-caps:normal;font-variant-numeric:normal;font-feature-settings:normal;text-align:start;letter-spacing:0px;word-spacing:0px;writing-mode:lr-tb;text-anchor:start;opacity:1;fill:#000000;fill-opacity:1;stroke:none;stroke-width:0.34053576px;stroke-linecap:butt;stroke-linejoin:miter;stroke-opacity:1"
       xml:space="preserve"><tspan
         style="opacity:1;stroke-width:0.34053576px"
         y="52.616837"
         x="0.16741693"
         id="tspan4149"
         sodipodi:role="line">Lighthouse</tspan></text>
  </g>
  <g
     transform="translate(0,-270.54165)"
     inkscape:label="beam"
     id="layer2"
     inkscape:groupmode="layer">
    <path
       sodipodi:nodetypes="ccccc"
       inkscape:connector-curvature="0"
       id="rect4220"
       d="M 146.96656,278.31293 27.900262,275.945 l 0.68038,-3.64453 118.385918,-2.60736 z"
       style="opacity:1;fill:url(#linearGradient5542-607-232);fill-opacity:1;stroke-width:0.19978197" />
  </g>
  <g
     inkscape:groupmode="layer"
     id="layer4"
     inkscape:label="lighthouse image"
     transform="translate(0,-26.458333)">
    <g
       id="g6012"
       transform="matrix(0.06174963,0,0,0.06174963,7.9345722,27.009785)">
      <rect
         id="rect5958"
         class=""
         data-original="#FF6464"
         height="26.483"
         width="52.966"
         style="fill:#ff6464"
         y="88.276001"
         x="229.517" />
      <rect
         id="rect5960"
         data-old_color="#B4E1FA"
         class=""
         data-original="#B4E1FA"
         height="26.483"
         width="52.966"
         style="fill:#a0d2f0"
         y="52.966"
         x="229.517" />
      <rect
         id="rect5962"
         class=""
         data-original="#A0D2F0"
         height="17.655001"
         width="52.966"
         style="fill:#a0d2f0"
         y="35.310001"
         x="229.517" />
      <path
         id="path5964"
         data-old_color="#625D6B"
         class=""
         data-original="#D2555A"
         d="m 286.897,88.276 h -61.793 c -2.438,0 -4.414,-1.976 -4.414,-4.414 v -8.828 c 0,-2.438 1.976,-4.414 4.414,-4.414 h 61.793 c 2.438,0 4.414,1.976 4.414,4.414 v 8.828 c -10e-4,2.438 -1.977,4.414 -4.414,4.414 z"
         style="fill:#f5ebe1"
         inkscape:connector-curvature="0" />
      <polygon
         id="polygon5966"
         class=""
         data-original="#EDEDEE"
         points="211.862,167.724 194.207,388.414 317.793,388.414 300.138,167.724 300.138,114.759 211.862,114.759 "
         style="fill:#ededee" />
      <g
         id="g5976">
        <polygon
           id="polygon5968"
           class=""
           data-original="#FF6464"
           points="300.138,151.172 300.138,115.862 211.862,148.966 211.862,167.724 210.497,184.788 "
           style="fill:#ff6464" />
        <polygon
           id="polygon5970"
           class=""
           data-original="#FF6464"
           points="312.565,323.064 195.936,366.801 194.207,388.414 232.46,388.414 315.308,357.346 "
           style="fill:#ff6464" />
        <polygon
           id="polygon5972"
           class=""
           data-original="#FF6464"
           points="301.594,185.937 207.585,221.191 204.672,257.592 304.338,220.218 "
           style="fill:#ff6464" />
        <polygon
           id="polygon5974"
           class=""
           data-original="#FF6464"
           points="307.081,254.5 201.76,293.995 198.848,330.398 309.823,288.781 "
           style="fill:#ff6464" />
      </g>
      <path
         id="path5978"
         data-old_color="#625D6B"
         class=""
         data-original="#D2555A"
         d="M 331.034,379.586 H 180.966 c -2.438,0 -4.414,1.976 -4.414,4.414 v 57.379 H 335.449 V 384 c -0.001,-2.438 -1.977,-4.414 -4.415,-4.414 z"
         style="fill:#f5ebe1"
         inkscape:connector-curvature="0" />
      <path
         id="path5980"
         class=""
         data-original="#FF6464"
         d="m 291.31,379.586 -31.362,-15.681 c -2.485,-1.242 -5.41,-1.242 -7.895,0 l -31.363,15.681 v 61.793 h 70.621 v -61.793 z"
         style="fill:#ff6464"
         inkscape:connector-curvature="0" />
      <path
         id="path5982"
         data-old_color="#625D6B"
         class=""
         data-original="#D2555A"
         d="m 273.655,441.379 h -35.31 v -48.552 c 0,-2.438 1.976,-4.414 4.414,-4.414 h 26.483 c 2.438,0 4.414,1.976 4.414,4.414 v 48.552 z"
         style="fill:#f5ebe1"
         inkscape:connector-curvature="0" />
      <rect
         id="rect5984"
         data-old_color="#EBDFD4"
         class=""
         data-original="#EBDFD4"
         height="61.792999"
         width="247.172"
         style="fill:#e1d4c8"
         y="441.379"
         x="132.414" />
      <rect
         id="rect5986"
         class=""
         data-original="#E1D4C8"
         height="61.792999"
         width="123.586"
         style="fill:#e1d4c8"
         y="441.379"
         x="132.414" />
      <path
         id="path5988"
         data-old_color="#625D6B"
         class=""
         data-original="#A7A5AC"
         d="M 392.828,512 H 119.172 c -2.438,0 -4.414,-1.976 -4.414,-4.414 v -8.828 c 0,-2.438 1.976,-4.414 4.414,-4.414 h 273.655 c 2.438,0 4.414,1.976 4.414,4.414 v 8.828 c 0,2.438 -1.976,4.414 -4.413,4.414 z"
         style="fill:#e1d4c8"
         inkscape:connector-curvature="0" />
      <path
         id="path5990"
         data-old_color="#504B5A"
         class=""
         data-original="#F5EBE1"
         d="M 384,450.207 H 128 c -2.438,0 -4.414,-1.976 -4.414,-4.414 v -8.828 c 0,-2.438 1.976,-4.414 4.414,-4.414 h 256 c 2.438,0 4.414,1.976 4.414,4.414 v 8.828 c 0,2.438 -1.976,4.414 -4.414,4.414 z"
         style="fill:#e1d4c8"
         inkscape:connector-curvature="0" />
      <path
         id="path5992"
         data-old_color="#EBDFD4"
         class=""
         data-original="#EBDFD4"
         d="M 256,432.552 H 128 c -2.438,0 -4.414,1.976 -4.414,4.414 v 8.828 c 0,2.438 1.976,4.414 4.414,4.414 h 128 z"
         style="fill:#e1d4c8"
         inkscape:connector-curvature="0" />
      <path
         id="path5994"
         data-old_color="#625D6B"
         class=""
         data-original="#D2555A"
         d="m 304.552,123.586 h -97.103 c -2.438,0 -4.414,-1.976 -4.414,-4.414 v -8.828 c 0,-2.438 1.976,-4.414 4.414,-4.414 h 97.103 c 2.438,0 4.414,1.976 4.414,4.414 v 8.828 c 0,2.438 -1.977,4.414 -4.414,4.414 z"
         style="fill:#f5ebe1"
         inkscape:connector-curvature="0" />
      <path
         id="path5996"
         class=""
         data-original="#FF6464"
         d="M 264.828,10.45 V 8.828 C 264.828,3.953 260.875,0 256,0 c -4.875,0 -8.828,3.953 -8.828,8.828 v 1.622 c -10.262,3.648 -17.655,13.347 -17.655,24.861 h 52.966 c 0,-11.515 -7.393,-21.213 -17.655,-24.861 z"
         style="fill:#ff6464"
         inkscape:connector-curvature="0" />
      <path
         id="path5998"
         class=""
         data-original="#625D6B"
         d="m 260.414,353.103 h -8.828 c -2.438,0 -4.414,-1.976 -4.414,-4.414 v -17.655 c 0,-2.438 1.976,-4.414 4.414,-4.414 h 8.828 c 2.438,0 4.414,1.976 4.414,4.414 v 17.655 c 0,2.438 -1.977,4.414 -4.414,4.414 z"
         style="fill:#625d6b"
         inkscape:connector-curvature="0" />
      <g
         id="g6006">
        <path
           id="path6000"
           class=""
           data-original="#504B5A"
           d="m 260.414,326.621 h -8.828 c -2.438,0 -4.414,1.976 -4.414,4.414 v 17.655 c 0,-2.438 1.976,-4.414 4.414,-4.414 h 8.828 c 2.438,0 4.414,1.976 4.414,4.414 v -17.655 c 0,-2.438 -1.977,-4.414 -4.414,-4.414 z"
           style="fill:#504b5a"
           inkscape:connector-curvature="0" />
        <path
           id="path6002"
           class=""
           data-original="#504B5A"
           d="m 258.207,291.31 h -4.414 c -2.438,0 -4.414,-1.976 -4.414,-4.414 v -8.828 c 0,-2.438 1.976,-4.414 4.414,-4.414 h 4.414 c 2.438,0 4.414,1.976 4.414,4.414 v 8.828 c 0,2.438 -1.977,4.414 -4.414,4.414 z"
           style="fill:#504b5a"
           inkscape:connector-curvature="0" />
        <path
           id="path6004"
           class=""
           data-original="#504B5A"
           d="m 258.207,238.345 h -4.414 c -2.438,0 -4.414,-1.976 -4.414,-4.414 v -8.828 c 0,-2.438 1.976,-4.414 4.414,-4.414 h 4.414 c 2.438,0 4.414,1.976 4.414,4.414 v 8.828 c 0,2.438 -1.977,4.414 -4.414,4.414 z"
           style="fill:#504b5a"
           inkscape:connector-curvature="0" />
      </g>
      <path
         id="path6008"
         data-old_color="#625D6B"
         class="active-path"
         data-original="#DCDBDE"
         d="M 300.138,158.897 H 279.54 l -47.081,17.655 h 67.679 c 2.438,0 4.414,-1.976 4.414,-4.414 v -8.828 c 0,-2.437 -1.977,-4.413 -4.414,-4.413 z"
         style="fill:#f5ebe1"
         inkscape:connector-curvature="0" />
      <path
         id="path6010"
         data-old_color="#625D6B"
         class=""
         data-original="#D2555A"
         d="m 211.862,158.897 c -2.438,0 -4.414,1.976 -4.414,4.414 v 8.828 c 0,2.438 1.976,4.414 4.414,4.414 h 20.598 l 47.081,-17.655 h -67.679 z"
         style="fill:#f5ebe1"
         inkscape:connector-curvature="0" />
    </g>
  </g>
</svg>
